<svg height="42" viewBox="0 0 42 42" width="42" xmlns="http://www.w3.org/2000/svg"><path d="m14.9954377.87099442c1.9024684-.5666755 3.9179766-.87099442 6.0045623-.87099442 1.6982608 0 3.3494381.20158826 4.9309082.58214106-2.3687295.83297441-4.3819977 2.24454145-5.7472832 4.18652112-1.4616738-1.78738107-3.2305577-3.06989712-5.1881873-3.89766776zm-14.93116107 18.47375828c5.75178517 4.2930799 15.41822357 4.6441244 15.41822357 10.0321985 0 2.537-2.124 4.543-6.19500001 4.543-4.602 0-7.552-2.596-8.024-6.726l-.31180726.0751068c-.61843243-1.9797898-.95169293-4.0855053-.95169293-6.269058 0-.5570817.02169173-1.1090969.06427663-1.6552473zm14.04226217 21.4976391c2.1592775.7500612 4.4787755 1.1576082 6.8934612 1.1576082 2.2217511 0 4.3629179-.3450224 6.3728436-.9844105-2.7008883-.5968615-5.1846282-1.7740367-7.1841422-3.5011769-1.6261869 1.5620441-3.7188571 2.6858778-6.0821626 3.3279792zm9.536869-13.6461283c-1.4984778-12.0343975-19.48890761-10.1329697-19.48890761-16.5223123 0-2.12400003 1.947-3.77600003 4.602-3.77600003 2.65500001 0 4.83800001 1.652 6.19500001 4.30700003l3.4930753-2.12621976c-.1055856.63927822-.1605682 1.30892526-.1605682 2.00821976 0 13.157 19.588 10.62 19.588 18.29 0 2.537-2.124 4.543-6.195 4.543-4.602 0-7.552-2.596-8.024-6.726zm15.3644742-17.0059317c1.7596027 2.9250391 2.826701 6.3139383 2.9744304 9.939833-5.7493364-4.5434413-15.4383051-4.7672789-15.4383051-9.4562136 0-2.12400003 1.947-3.77600003 4.602-3.77600003s4.838 1.652 6.195 4.30700003z" fill="#fb4f4f" fill-rule="evenodd" transform=""/></svg>