<?xml version="1.0" encoding="UTF-8" standalone="no"?>
<svg width="42px" height="42px" viewBox="0 0 42 42" version="1.1" xmlns="http://www.w3.org/2000/svg" xmlns:xlink="http://www.w3.org/1999/xlink">
    <!-- Generator: Sketch 42 (36781) - http://www.bohemiancoding.com/sketch -->
    <title>logo</title>
    <desc>Created with Sketch.</desc>
    <defs></defs>
    <g id="Page-1" stroke="none" stroke-width="1" fill="none" fill-rule="evenodd">
        <g id="Desktop-Copy" transform="translate(-492.000000, -3992.000000)" fill="#FB4F4F">
            <g id="Group-7" transform="translate(492.000000, 3992.000000)">
                <path d="M14.9954377,0.870994419 C16.8979061,0.304318916 18.9134143,0 21,0 C22.6982608,0 24.3494381,0.201588261 25.9309082,0.582141063 C23.5621787,1.41511547 21.5489105,2.82668251 20.183625,4.76866218 C18.7219512,2.98128111 16.9530673,1.69876506 14.9954377,0.870994419 Z M0.0642766336,19.3447527 C5.8160618,23.6378326 15.4825002,23.9888771 15.4825002,29.3769512 C15.4825002,31.9139512 13.3585002,33.9199512 9.28750019,33.9199512 C4.68550019,33.9199512 1.73550019,31.3239512 1.26350019,27.1939512 L0.951692932,27.269058 C0.333260503,25.2892682 -6.39488462e-14,23.1835527 -6.39488462e-14,21 C-6.39488462e-14,20.4429183 0.0216917312,19.8909031 0.0642766336,19.3447527 Z M14.1065388,40.8423918 C16.2658163,41.592453 18.5853143,42 21,42 C23.2217511,42 25.3629179,41.6549776 27.3728436,41.0155895 C24.6719553,40.418728 22.1882154,39.2415528 20.1887014,37.5144126 C18.5625145,39.0764567 16.4698443,40.2002904 14.1065388,40.8423918 Z M23.6434078,27.1962635 C22.14493,15.161866 4.15450019,17.0632938 4.15450019,10.6739512 C4.15450019,8.54995117 6.10150019,6.89795117 8.75650019,6.89795117 C11.4115002,6.89795117 13.5945002,8.54995117 14.9515002,11.2049512 L18.4445755,9.07873144 C18.3389899,9.71800966 18.2840073,10.3876567 18.2840073,11.0869512 C18.2840073,24.2439512 37.8720073,21.7069512 37.8720073,29.3769512 C37.8720073,31.9139512 35.7480073,33.9199512 31.6770073,33.9199512 C27.0750073,33.9199512 24.1250073,31.3239512 23.6530073,27.1939512 L23.6434078,27.1962635 Z M39.007882,10.1903318 C40.7674847,13.1153709 41.834583,16.5042701 41.9823124,20.1301648 C36.232976,15.5867235 26.5440073,15.3628859 26.5440073,10.6739512 C26.5440073,8.54995117 28.4910073,6.89795117 31.1460073,6.89795117 C33.8010073,6.89795117 35.9840073,8.54995117 37.3410073,11.2049512 L39.007882,10.1903318 Z" id="logo"></path>
            </g>
        </g>
    </g>
</svg>